:SAMPLES-PER-SECOND 30
:FRAME-RANGE 1-1390
:FULLY-SPECIFIED
:DEGREES
869
root  -42.0916 39.296 -27.7545 171.252 -45.5447 179.076
RightUpLeg  9.89712 -13.4275 -0.0823361
RightLeg  28.3905 -6.57867 -4.07318
RightFoot  -12.7361 0.0541776 11.5426
RightToes  -2.9104e-010 0 -3.6325e-017
Spine  11.4538 -1.42586 -9.66854
Spine1  1.48336 -7.31275 12.4628
HEad  -1.13479 -22.8121 9.44816
LeftShoulder1  3.01298 -5.18022 -28.6493
LeftArm  81.1459 -29.7106 -84.6096
LeftForeArm  -4.64394 -16.8099 -12.4663
LeftHand  -0.0184203 3.13037 0.0739872
RightShoulder  11.7753 18.0565 47.7572
RightArm  37.9701 6.65657 22.671
RightForeArm  26.301 29.9973 5.07232
RightHand  1.16252 6.48321 10.9592
LeftUpLeg  -95.7835 22.8926 -73.4598
LeftLeg  129.027 -5.4783 5.82678
LeftFoot  9.23521 1.47368 -8.41934
LeftToes  5.45371e-012 -1.3743e-010 1.09575e-010
870
root  -43.3934 40.3397 -28.5478 171.031 -45.4106 177.174
RightUpLeg  11.1119 -11.2134 -3.05216
RightLeg  30.6758 -5.22504 -3.58024
RightFoot  -1.86487 -1.15574 13.7283
RightToes  -2.9104e-010 0 -3.6325e-017
Spine  12.2297 -1.16478 -8.3866
Spine1  0.913134 -6.79335 11.8365
HEad  0.0302907 -24.671 7.42013
LeftShoulder1  2.99315 -5.20307 -28.3226
LeftArm  77.5397 -30.3683 -85.2181
LeftForeArm  -0.359366 -15.69 -13.2967
LeftHand  -0.0172009 3.23239 -0.0220009
RightShoulder  12.1207 18.6254 47.8879
RightArm  39.2659 6.82372 23.014
RightForeArm  24.1773 28.409 4.82402
RightHand  1.15974 6.80165 10.6305
LeftUpLeg  -96.1777 22.1446 -72.0553
LeftLeg  128.939 -7.00119 7.56879
LeftFoot  10.503 1.53745 -8.29078
LeftToes  5.45371e-012 -1.3743e-010 1.09575e-010
871
root  -44.4995 41.1029 -29.1184 170.862 -44.3073 176.116
RightUpLeg  6.97105 -8.69611 -3.50097
RightLeg  38.2544 -7.20408 -6.32398
RightFoot  10.0199 -0.421208 2.59875
RightToes  -2.9104e-010 0 -3.6325e-017
Spine  14.1224 -0.725283 -6.49309
Spine1  0.169496 -6.11184 11.3821
HEad  -0.283903 -25.4675 6.76866
LeftShoulder1  2.91 -5.16751 -27.481
LeftArm  83.9954 -30.9077 -86.1716
LeftForeArm  -7.01675 -17.2394 -12.1671
LeftHand  -0.0181866 3.29082 -0.359228
RightShoulder  12.6986 19.5269 48.198
RightArm  38.6595 7.90439 22.4405
RightForeArm  24.0959 27.4597 4.61504
RightHand  1.18839 7.26529 10.4777
LeftUpLeg  -97.3548 21.5782 -71.2282
LeftLeg  127.363 -8.23244 9.46599
LeftFoot  8.88339 1.32222 -7.71047
LeftToes  5.45371e-012 -1.3743e-010 1.09575e-010
872
root  -45.4853 41.4645 -29.6525 172.186 -44.1208 174.661
RightUpLeg  2.22502 -7.87427 -3.81074
RightLeg  41.5973 -8.09884 -7.91709
RightFoot  7.11341 -0.0882085 0.843396
RightToes  -2.9104e-010 0 -3.6325e-017
Spine  15.4301 -0.702828 -6.35053
Spine1  0.0827411 -6.31393 11.8835
HEad  -1.25193 -25.9964 7.09112
LeftShoulder1  2.85058 -5.05586 -27.2158
LeftArm  86.2635 -31.9007 -86.9874
LeftForeArm  -11.2044 -17.6779 -11.9585
LeftHand  -0.0191775 3.25791 -0.702764
RightShoulder  13.0323 20.5098 47.4078
RightArm  37.1486 9.33057 22.3043
RightForeArm  25.1878 26.9937 4.4529
RightHand  1.23099 7.84515 10.3603
LeftUpLeg  -97.8818 21.0374 -72.3953
LeftLeg  124.843 -8.28182 10.429
LeftFoot  6.47342 1.09646 -7.2417
LeftToes  5.45371e-012 -1.3743e-010 1.09575e-010
873
root  -46.3992 41.591 -30.2664 173.255 -44.4677 174.421
RightUpLeg  -1.63405 -8.97585 -2.62367
RightLeg  36.3261 -8.86288 -7.19579
RightFoot  3.51955 -0.27739 2.31061
RightToes  -2.9104e-010 0 -3.6325e-017
Spine  16.2805 -1.02773 -5.57969
Spine1  0.419196 -6.82538 12.2374
HEad  -2.35583 -26.9417 7.84369
LeftShoulder1  2.90708 -5.115 -27.6567
LeftArm  80.0904 -33.8527 -88.2315
LeftForeArm  -4.91452 -15.7957 -13.4467
LeftHand  -0.0237377 3.67622 -0.255884
RightShoulder  13.11 21.2819 46.1546
RightArm  35.8182 10.4876 22.1545
RightForeArm  27.0024 27.51 4.46941
RightHand  1.20285 7.86601 10.0995
LeftUpLeg  -97.5523 21.8438 -73.4289
LeftLeg  123.016 -6.33374 8.46978
LeftFoot  5.62994 1.30463 -8.96169
LeftToes  5.45371e-012 -1.3743e-010 1.09575e-010
874
root  -47.233 41.2924 -30.9557 174.98 -44.2049 174.232
RightUpLeg  -5.44724 -10.2977 -0.274275
RightLeg  27.4282 -11.0734 -6.40453
RightFoot  -1.24257 -0.468229 5.1988
RightToes  -2.9104e-010 0 -3.6325e-017
Spine  16.4854 -1.11427 -4.71703
Spine1  0.628752 -6.91128 11.7723
HEad  -2.72896 -28.0286 8.6994
LeftShoulder1  2.95998 -5.23619 -27.7989
LeftArm  73.6901 -35.6613 -89.4042
LeftForeArm  2.39469 -13.7834 -14.7349
LeftHand  -0.0243235 4.05021 0.212868
RightShoulder  13.2276 22.0643 45.0854
RightArm  35.5083 10.7656 21.93
RightForeArm  28.3961 28.392 4.59089
RightHand  1.20494 7.57525 10.3587
LeftUpLeg  -97.991 22.9746 -75.1319
LeftLeg  122.219 -4.8526 6.59714
LeftFoot  5.91815 1.82151 -12.2037
LeftToes  5.45371e-012 -1.3743e-010 1.09575e-010
875
root  -48.0463 40.3828 -31.8976 176.025 -44.1933 174.059
RightUpLeg  -7.87671 -11.9632 2.46293
RightLeg  19.8756 -7.92812 -2.93936
RightFoot  -0.251498 -1.00288 10.2865
RightToes  -2.9104e-010 0 -3.6325e-017
Spine  16.7752 -1.01966 -4.82276
Spine1  0.55567 -7.01295 11.5353
HEad  -3.69878 -29.5015 10.3174
LeftShoulder1  2.97711 -5.15394 -28.3324
LeftArm  72.8594 -35.7439 -88.8775
LeftForeArm  2.40957 -13.6229 -14.8544
LeftHand  -0.0143516 3.93755 -0.608579
RightShoulder  13.2349 22.3125 44.6509
RightArm  36.2181 10.3516 21.6502
RightForeArm  28.2809 29.1675 4.77242
RightHand  1.2534 7.32257 11.0142
LeftUpLeg  -98.2854 24.2581 -76.2939
LeftLeg  123.279 -4.21429 5.44548
LeftFoot  7.19611 2.27291 -14.1385
LeftToes  5.45371e-012 -1.3743e-010 1.09575e-010
